<?xml version="1.0" standalone="no"?>
<!DOCTYPE svg PUBLIC "-//W3C//DTD SVG 20010904//EN"
 "http://www.w3.org/TR/2001/REC-SVG-20010904/DTD/svg10.dtd">
<svg version="1.0" xmlns="http://www.w3.org/2000/svg"
 width="1686.000000pt" height="1116.000000pt" viewBox="0 0 1686.000000 1116.000000"
 preserveAspectRatio="xMidYMid meet">
<metadata>
Created by potrace 1.16, written by Peter Selinger 2001-2019
</metadata>
<g transform="translate(0.000000,1116.000000) scale(0.100000,-0.100000)"
fill="#ffffff" stroke="none">
<path d="M7026 6602 c-6 -10 -8 -154 -7 -550 l1 -332 523 2 522 3 0 440 0 440
-517 3 c-284 1 -519 -1 -522 -6z m989 -117 l0 -70 -472 -3 -473 -2 0 75 0 75
473 -2 472 -3 0 -70z m5 -420 l0 -295 -475 0 -475 0 0 295 0 295 475 0 475 0
0 -295z"/>
<path d="M7587 6228 c-29 -45 -130 -317 -123 -333 3 -9 14 -15 23 -13 21 4
144 300 140 337 -3 33 -22 37 -40 9z"/>
<path d="M7372 6117 c-29 -29 -52 -57 -52 -62 0 -6 25 -36 54 -68 37 -39 59
-55 70 -51 26 10 19 38 -19 74 -19 19 -35 39 -35 45 0 6 16 26 35 45 19 19 35
42 35 52 0 33 -35 19 -88 -35z"/>
<path d="M7626 6155 c-3 -10 10 -33 36 -61 l41 -45 -41 -42 c-39 -39 -41 -45
-28 -62 14 -19 17 -18 75 40 34 33 61 64 61 70 0 17 -104 115 -122 115 -9 0
-19 -7 -22 -15z"/>
<path d="M8126 6241 c-4 -5 -3 -16 0 -25 5 -14 38 -16 265 -16 l259 0 0 -212
0 -212 -29 32 c-30 33 -61 35 -61 5 0 -14 81 -118 104 -135 15 -10 29 1 81 64
44 54 54 87 28 95 -6 2 -25 -11 -42 -29 l-31 -33 0 238 0 237 -284 0 c-160 0
-287 -4 -290 -9z"/>
<path d="M4597 6123 c-4 -3 -7 -38 -6 -77 0 -39 3 -65 6 -58 2 6 9 10 14 6 5
-3 9 5 9 17 0 18 3 20 12 11 19 -19 53 -520 38 -571 -4 -14 -5 -42 -3 -61 3
-26 2 -31 -6 -20 -6 8 -13 40 -17 70 -12 100 -22 97 -17 -5 2 -55 2 -97 -1
-95 -2 3 -27 61 -54 130 -49 123 -74 198 -127 375 -36 122 -47 137 -93 133
-26 -2 -39 -8 -44 -23 -6 -15 -7 -13 -4 8 3 22 -2 31 -21 40 -17 7 -27 7 -34
0 -12 -12 -29 -134 -18 -127 4 2 9 -4 11 -13 2 -10 8 7 12 37 l8 55 18 -42
c10 -23 22 -63 26 -90 5 -37 9 -44 15 -28 8 20 8 20 8 0 2 -58 -29 -239 -44
-255 -13 -14 -15 -30 -10 -76 3 -33 2 -72 -4 -89 -7 -23 -10 -3 -12 90 l-2
120 -9 -83 c-11 -86 -15 -92 -34 -39 l-11 32 -10 -40 c-16 -64 -5 -280 19
-373 11 -45 30 -56 84 -50 l29 3 5 322 c3 177 9 325 13 329 4 4 7 -3 7 -16 0
-44 79 -272 143 -411 38 -85 126 -226 157 -254 23 -20 71 -17 133 8 35 15 37
19 37 59 0 24 -7 84 -15 134 -53 328 -77 577 -73 759 l3 150 -40 7 c-52 9 -90
10 -98 1z"/>
<path d="M11195 6116 c-22 -7 -56 -21 -75 -32 -20 -11 -54 -19 -80 -19 l-45 0
-2 -45 c-1 -25 -4 -57 -8 -72 -5 -18 -3 -28 4 -28 7 0 11 -22 11 -57 0 -81 27
-423 46 -572 8 -68 14 -147 13 -175 -1 -28 3 -61 10 -74 10 -19 20 -22 76 -22
59 0 65 2 65 21 0 11 20 44 43 72 49 58 127 171 127 184 0 4 -9 -5 -20 -22
-35 -53 -21 -19 20 49 44 73 75 108 85 98 3 -4 3 2 -1 12 -5 12 -4 17 3 13 11
-7 28 27 64 126 11 31 24 57 28 57 11 0 30 60 37 120 7 63 -9 157 -36 210 -26
50 -64 83 -153 129 -85 45 -136 51 -212 27z m234 -120 c77 -155 0 -452 -184
-719 -43 -62 -55 -69 -55 -34 0 19 -29 415 -46 618 l-6 76 34 28 c53 45 165
87 218 82 8 -1 26 -24 39 -51z"/>
<path d="M10000 6102 c-62 -30 -102 -138 -117 -307 -5 -66 -4 -75 11 -75 13 0
16 -12 16 -74 0 -40 3 -88 7 -107 5 -28 7 -30 14 -14 5 14 8 8 8 -23 1 -24 -3
-41 -8 -37 -5 3 -12 -5 -14 -17 -2 -13 -5 2 -6 32 -1 30 -6 64 -10 75 -5 12
-7 -11 -5 -55 3 -41 6 -109 8 -150 6 -112 25 -198 59 -263 35 -67 45 -71 157
-65 67 4 84 9 115 32 68 52 129 162 142 259 l6 37 -49 0 c-36 0 -54 -5 -66
-19 -9 -11 -14 -22 -11 -25 4 -3 2 -6 -4 -6 -6 0 -21 -25 -33 -55 -12 -31 -36
-74 -52 -97 -26 -35 -32 -39 -40 -25 -17 31 -38 112 -55 212 -22 129 -24 464
-4 545 18 73 41 130 52 130 5 0 17 -17 28 -38 17 -33 26 -40 71 -50 92 -21 97
-15 55 68 -35 69 -45 75 -225 126 -8 2 -31 -4 -50 -14z"/>
<path d="M12429 6082 c-62 -40 -120 -109 -167 -200 -81 -157 -101 -269 -55
-313 10 -9 48 -26 84 -37 l66 -19 64 23 c35 12 82 29 104 38 73 28 95 19 95
-40 0 -69 -84 -206 -192 -312 -71 -70 -186 -144 -215 -139 -13 2 -28 -2 -34
-9 -9 -11 -5 -16 16 -24 57 -21 117 -32 151 -27 96 16 307 205 370 332 71 144
55 209 -66 270 -99 50 -137 52 -239 16 l-84 -30 6 47 c3 26 19 76 35 112 16
36 30 68 30 73 5 25 34 67 44 61 7 -4 8 -3 4 4 -14 23 107 122 149 122 15 0
15 2 4 16 -13 16 -101 64 -117 64 -4 0 -28 -13 -53 -28z"/>
<path d="M5200 6073 c-1 -16 -4 -64 -8 -108 -10 -121 -7 -884 4 -930 9 -38 11
-40 54 -43 25 -2 59 -1 77 3 31 6 32 7 28 48 -2 23 -7 105 -9 182 -6 156 -10
153 61 45 32 -49 163 -211 201 -250 8 -8 0 7 -18 33 -17 27 -30 50 -28 53 3 2
26 -23 53 -55 27 -33 53 -57 58 -54 8 5 -1 19 -37 60 -11 13 -17 25 -14 29 3
3 23 -16 43 -41 23 -28 41 -42 45 -35 5 7 11 6 19 -4 10 -12 18 -13 33 -5 19
10 19 11 2 37 -10 15 -39 52 -65 82 -72 83 -193 261 -250 367 l-51 94 59 77
c32 42 104 132 161 201 56 69 101 130 99 136 -2 5 -18 11 -35 13 -28 3 -36 -4
-87 -72 -31 -41 -54 -80 -50 -86 4 -6 1 -9 -6 -8 -7 2 -13 -4 -14 -12 0 -23
-86 -131 -98 -123 -6 3 -7 1 -3 -5 8 -13 -25 -82 -48 -101 -24 -20 -32 -7 -34
55 0 32 -5 60 -10 63 -5 3 -12 47 -16 96 -11 149 -17 219 -22 238 -9 29 -24
19 -25 -15 -1 -20 -3 -25 -6 -13 -10 48 -26 75 -44 75 -14 0 -19 -7 -19 -27z"/>
<path d="M4915 6078 c-7 -20 -9 -83 -7 -183 3 -91 12 -99 26 -22 5 28 11 37
22 33 8 -3 14 0 14 6 0 7 7 3 15 -8 12 -15 14 -62 14 -249 0 -182 -3 -225 -12
-205 -6 14 -14 27 -18 30 -3 3 -9 12 -12 20 -3 8 -6 -6 -6 -32 -2 -82 -21 -66
-22 19 -1 72 -2 75 -11 38 -5 -22 -10 -67 -11 -100 -3 -114 6 -390 13 -410 9
-25 39 -29 103 -14 l47 11 1 86 c4 199 -1 955 -5 959 -5 5 -121 32 -139 33 -4
0 -10 -6 -12 -12z"/>
<path d="M6093 6065 c-32 -14 -78 -73 -103 -135 -11 -28 -16 -30 -46 -24 -39
7 -43 0 -68 -106 -52 -224 -56 -550 -9 -689 19 -57 53 -109 76 -117 9 -3 53
-2 97 2 67 5 88 12 121 36 23 16 38 32 35 36 -3 3 -15 -4 -26 -16 -32 -34 -44
-26 -17 11 26 34 57 91 57 104 0 4 -16 -19 -36 -50 -45 -72 -55 -69 -14 4 33
60 83 206 75 219 -9 14 16 108 29 113 8 3 17 30 20 61 4 31 12 54 17 51 5 -4
9 0 9 7 0 9 3 9 10 -2 8 -12 10 -10 11 10 1 21 3 19 10 -10 10 -40 2 -167 -12
-176 -5 -3 -9 -16 -9 -30 0 -14 -7 -32 -16 -41 -8 -9 -13 -22 -10 -29 3 -8 1
-26 -4 -40 -7 -17 -7 -23 0 -19 6 3 10 12 10 18 0 7 7 26 16 42 44 84 69 313
54 487 -19 220 -25 227 -235 294 -5 2 -25 -3 -42 -11z m107 -307 c0 -184 -12
-305 -40 -425 -24 -103 -88 -246 -106 -239 -8 3 -11 0 -7 -10 3 -7 1 -14 -4
-14 -5 0 -20 32 -33 70 -13 39 -25 70 -27 70 -2 0 -2 -21 2 -47 4 -41 4 -44
-6 -23 -6 14 -13 58 -16 98 -6 71 -6 72 19 72 13 0 33 6 43 14 18 13 18 14 -2
25 -16 8 -23 25 -29 67 -4 35 -3 59 4 63 5 3 11 22 13 41 2 19 9 46 16 60 7
14 13 31 13 39 0 8 3 12 6 8 12 -12 29 19 53 93 31 98 77 200 90 200 7 0 11
-54 11 -162z"/>
<path d="M11710 6067 c-46 -23 -52 -67 -51 -357 1 -350 24 -607 63 -687 l13
-28 110 0 c108 0 111 1 163 34 89 57 161 164 100 147 -13 -3 -35 -6 -51 -6
-20 0 -40 -13 -73 -47 -46 -47 -46 -48 -18 -8 l29 40 -47 -42 c-52 -47 -64
-51 -72 -25 -10 31 -36 252 -36 300 l0 48 83 41 c45 22 92 44 104 47 31 10 37
35 10 40 -69 14 -121 15 -159 1 -23 -8 -44 -12 -46 -10 -2 2 -7 77 -11 167 -7
168 -1 262 19 282 7 7 51 11 116 10 57 -1 104 2 104 6 0 15 -36 22 -115 25
-110 5 -120 -3 -136 -102 -7 -43 -15 -70 -17 -60 -2 9 -7 17 -12 17 -11 0 -20
-43 -21 -112 -3 -90 -18 -93 -21 -3 -1 62 -3 68 -5 28 -2 -29 -7 -53 -12 -53
-8 0 -5 221 4 257 5 23 31 30 135 38 71 5 72 6 25 16 -60 12 -147 10 -175 -4z"/>
<path d="M10638 5998 c-16 -17 -39 -52 -51 -77 -20 -42 -25 -46 -54 -43 -31 3
-32 1 -48 -50 -64 -217 -70 -593 -11 -723 38 -84 46 -88 145 -80 69 6 92 12
119 31 17 14 32 30 32 36 0 6 -10 2 -23 -10 -38 -35 -38 -25 -1 29 19 28 34
56 34 62 0 6 -13 -10 -29 -35 -44 -69 -53 -66 -16 5 38 71 78 184 70 197 -9
14 15 108 29 113 8 3 17 30 21 63 5 39 10 53 16 43 7 -11 9 -11 9 4 0 24 24
16 32 -11 10 -36 -24 -216 -43 -228 -5 -3 -9 -20 -8 -37 0 -32 0 -32 21 13 35
80 51 185 51 355 2 258 -20 312 -139 354 -87 30 -120 28 -156 -11z m138 -313
c-7 -182 -26 -317 -60 -419 -27 -80 -69 -159 -79 -149 -4 3 -7 -2 -7 -13 -1
-18 -1 -18 -12 1 -6 11 -20 45 -29 75 -19 57 -25 43 -10 -22 5 -21 5 -36 1
-33 -12 7 -30 98 -30 150 0 39 3 45 21 45 11 0 30 5 42 11 l21 12 -21 8 c-26
9 -40 90 -25 141 6 18 16 52 23 75 7 24 19 45 28 48 10 3 25 36 39 82 13 43
38 107 54 143 l30 65 10 -30 c5 -17 7 -99 4 -190z"/>
<path d="M7461 5588 c-28 -35 -51 -69 -51 -76 0 -26 31 -24 60 3 l30 28 2
-234 3 -234 285 0 c278 0 285 0 285 20 0 19 -8 20 -260 25 l-260 5 -3 210 -2
209 29 -28 c31 -30 61 -30 61 -1 0 20 -98 135 -115 135 -7 0 -36 -28 -64 -62z"/>
<path d="M8597 5643 c-4 -3 -7 -31 -7 -61 0 -47 -3 -55 -22 -60 -12 -3 -47
-18 -77 -33 l-56 -28 -35 34 c-20 19 -40 35 -46 35 -12 0 -114 -102 -114 -115
0 -5 16 -26 36 -47 l37 -37 -20 -48 c-12 -26 -24 -62 -28 -80 -6 -31 -8 -32
-63 -35 l-57 -3 0 -80 0 -80 58 -5 58 -5 24 -58 c12 -32 29 -64 36 -73 10 -12
6 -21 -24 -52 -21 -21 -37 -45 -37 -53 0 -19 91 -109 110 -109 8 0 31 16 52
37 l37 36 58 -26 c32 -14 67 -27 78 -29 17 -3 20 -12 23 -61 l3 -57 84 0 85 0
0 59 0 59 38 12 c20 7 55 23 78 36 l41 23 33 -34 c19 -19 41 -35 50 -35 19 0
110 90 110 110 0 8 -16 30 -35 50 l-35 35 25 60 c13 33 25 68 25 78 0 14 9 17
48 17 70 0 73 5 70 96 l-3 79 -55 3 -55 3 -36 79 -37 78 34 33 c19 18 34 40
34 49 0 19 -90 110 -110 110 -8 0 -31 -16 -51 -36 l-37 -36 -65 26 c-36 14
-70 26 -76 26 -6 0 -11 19 -11 44 0 74 -2 76 -89 76 -43 0 -81 -3 -84 -7z
m113 -92 c0 -55 9 -66 61 -75 20 -4 65 -20 99 -37 l62 -31 39 38 39 38 25 -24
25 -24 -37 -38 -37 -38 33 -62 c19 -33 39 -79 46 -102 l12 -41 57 -3 56 -3 0
-34 0 -35 -49 0 c-55 0 -66 -9 -74 -65 -4 -22 -20 -66 -36 -98 l-30 -58 36
-40 36 -40 -21 -22 -22 -21 -33 32 c-18 18 -38 32 -45 32 -7 0 -31 -12 -55
-27 -23 -15 -67 -34 -97 -44 l-55 -17 -3 -56 -3 -56 -34 0 -35 0 0 54 c0 59 2
57 -70 71 -19 4 -60 20 -91 36 l-56 28 -34 -35 c-38 -39 -49 -42 -74 -14 -18
20 -18 21 13 53 37 39 40 58 11 96 -12 16 -31 57 -43 92 l-22 64 -57 3 -57 3
0 34 0 34 57 3 57 3 13 59 c7 32 25 80 40 107 l28 48 -40 41 -39 40 22 22 22
22 33 -32 c41 -39 54 -40 112 -3 26 16 68 35 96 41 l49 12 0 52 c0 61 3 66 42
66 27 0 28 -2 28 -49z"/>
<path d="M8605 5367 c-123 -49 -195 -147 -195 -268 0 -111 78 -224 182 -263
59 -23 166 -18 223 9 50 25 105 80 130 130 27 57 32 164 9 223 -25 67 -95 137
-160 162 -60 22 -142 25 -189 7z m149 -51 c66 -20 110 -57 140 -118 32 -64 33
-125 5 -188 -27 -60 -54 -88 -114 -116 -67 -32 -127 -31 -194 2 -140 70 -170
252 -60 363 25 25 59 47 88 55 60 19 78 19 135 2z"/>
</g>
</svg>
